<svg xmlns="http://www.w3.org/2000/svg" version="1.1" xmlns:xlink="http://www.w3.org/1999/xlink" width="1500" height="1500" viewBox="0 0 1500 1500"><rect width="1500" height="1500" x="0" y="0" id="background" stroke="transparent" fill="#ffffff"></rect><svg xml:space="preserve" width="1000" height="1000" data-version="2" data-id="lg_yuN2DyzFRg5JzR6Nf5" viewBox="0 0 566 297" x="250" y="250"><rect width="100%" height="100%" fill="transparent"></rect><path fill="#005492" d="m74.18 279.574 19.99-103.07h11.47l22.17 103.07 19.99-103.07h8.84l-24.49 115.47h-17.21l-18.6-84.01-17.82 84.01H61.31l-24.64-107.41q-5.89 0-9.92 2.09t-6.51 5.58q-2.48 3.49-3.64 7.9-1.17 4.42-1.17 9.07 0 6.67 1.86 11.94t5.43 9.76q-3.1 0-6.2-.93t-5.58-3.25q-2.48-2.33-4.03-6.28-1.55-3.95-1.55-10 0-6.97 2.63-13.33 2.64-6.35 7.75-11.08 5.12-4.73 12.56-7.52 7.44-2.79 17.05-2.79 1.7 0 3.33.16 1.63.15 3.33.46Z"></path><rect width="151.28" height="116.25" x="-75.64" y="-58.13" fill="none" rx="0" ry="0" transform="translate(81.5 234.35)"></rect><path fill="#005492" d="M187.02 213.704q6.04 0 10.38 1.86 4.34 1.86 7.13 5.19t4.42 7.83q1.63 4.49 2.4 9.61h.93q6.51 0 11.94-2.64 5.42-2.63 9.3-6.66l2.32 4.18q-3.1 4.96-9.84 8.22-6.74 3.25-13.87 4.49 0 1.55.08 3.1.07 1.55.07 3.26 0 19.06-6.97 29.91-6.98 10.85-19.53 10.85-5.12 0-10.31-1.86t-9.38-6.2q-4.18-4.34-6.74-11.16-2.56-6.82-2.56-16.89 0-6.82 1.48-14.42 1.47-7.59 4.96-13.95 3.48-6.35 9.3-10.54 5.81-4.18 14.49-4.18m1.55 67.42q8.21 0 12.09-8.14 3.87-8.13 3.87-23.01v-1.86q0-.93-.15-1.86-4.5-.31-6.43-2.02-1.94-1.7-1.94-5.73 0-3.57 1.55-5.04 1.55-1.47 4.65-1.63-1.86-5.42-4.73-7.52-2.87-2.09-6.43-2.09-4.81 0-8.14 3.18-3.33 3.18-5.42 8.14-2.1 4.96-3.03 10.92-.93 5.97-.93 11.71 0 7.59 1.4 12.4 1.39 4.8 3.56 7.59t4.81 3.88q2.63 1.08 5.27 1.08"></path><rect width="79.05" height="79.2" x="-39.52" y="-39.6" fill="none" rx="0" ry="0" transform="translate(196.81 253.8)"></rect><path fill="#005492" d="M239.1 214.474v13.02q1.86-2.79 3.64-5.27 1.78-2.48 3.95-4.34 2.17-1.86 4.81-3.02 2.63-1.16 5.89-1.16 5.27 0 7.75 2.71 2.48 2.71 2.48 6.59 0 2.32-.78 3.87-.77 1.55-1.86 2.48-1.08.93-2.32 1.32-1.24.39-2.17.39-1.4 0-2.25-.62-.85-.62-1.7-1.32-.86-.7-1.94-1.32-1.09-.62-2.79-.62-3.57 0-6.82 2.48-3.26 2.48-5.89 5.27v57.04h-15.5v-77.5Z"></path><rect width="44.02" height="78.27" x="-22.01" y="-39.13" fill="none" rx="0" ry="0" transform="translate(246.11 253.34)"></rect><path fill="#005492" d="M291.18 183.474v56.27l26.66-25.27h15.03l-25.88 20.93h1.55q6.97 0 11.08 2.32 4.11 2.33 6.36 5.97 2.24 3.64 2.94 7.9.7 4.27.7 7.99 0 1.55-.08 3.48-.08 1.94-.15 3.88-.08 1.94-.16 3.56-.08 1.63-.08 2.56 0 1.09.16 2.48.15 1.4.77 2.64.62 1.24 1.86 2.09 1.24.85 3.26.85 4.03 0 6.9-4.03 2.86-4.03 4.72-12.86h5.74q-1.86 10.07-4.5 15.73-2.63 5.66-5.65 8.6-3.03 2.95-6.05 3.64-3.02.7-5.35.7-4.65 0-7.98-1.39-3.33-1.4-5.42-3.8-2.1-2.4-3.1-5.66-1.01-3.25-1.01-6.82v-2.71q0-2.09.08-4.42.07-2.32.07-4.42v-2.86q0-8.06-2.94-10.85-2.95-2.79-6.82-2.79-4.03 0-7.21 2.63-3.18 2.64-5.5 9.3v32.86h-15.5v-106.33Z"></path><rect width="76.88" height="109.43" x="-38.44" y="-54.72" fill="none" rx="0" ry="0" transform="translate(314.62 238.69)"></rect><path fill="#005492" d="M362.17 190.914v23.56h11.93v5.43h-11.93v47.27q0 1.86.15 4.26.16 2.41.86 4.58.69 2.17 2.17 3.64 1.47 1.47 4.1 1.47 4.19 0 7.99-4.18 3.8-4.19 5.96-12.71h5.74q-2.64 9.76-5.66 15.42t-6.28 8.6q-3.25 2.95-6.43 3.8-3.18.85-5.81.85-5.58 0-9.15-2.09-3.56-2.09-5.57-5.35-2.02-3.25-2.8-7.21-.77-3.95-.77-7.82v-50.53h-5.27v-5.43h5.27v-21.39Z"></path><rect width="47.74" height="101.99" x="-23.87" y="-50.99" fill="none" rx="0" ry="0" transform="translate(365.77 242.4)"></rect><path fill="#005492" d="M431.61 233.854q0 10.85-8.91 18.13-8.91 7.29-24.73 8.99.62 6.2 2.25 10.08 1.63 3.87 3.96 6.12 2.32 2.25 5.34 3.1 3.03.85 6.28.85 7.44 0 13.95-3.87 6.51-3.88 10.54-13.02h4.96q-2.02 5.73-5.58 10.92-3.57 5.2-8.37 9.15-4.81 3.95-10.38 6.28-5.59 2.32-11.48 2.32-5.42 0-10.46-1.86-5.04-1.86-8.91-6.12-3.88-4.26-6.28-11.08-2.4-6.82-2.4-16.74 0-6.51 1.47-14.11 1.47-7.59 4.96-14.1t9.15-10.85q5.65-4.34 14.02-4.34 3.88 0 7.52.85 3.64.85 6.59 3.1 2.95 2.25 4.73 6.12 1.78 3.88 1.78 10.08m-33.79 21.08q11-1.71 17.44-7.75 6.43-6.05 6.43-14.88 0-5.89-2.01-8.45-2.02-2.56-5.74-2.56-4.03 0-7.05 3.1-3.03 3.1-5.04 7.98-2.02 4.89-3.02 10.85-1.01 5.97-1.01 11.71"></path><rect width="63.86" height="79.2" x="-31.93" y="-39.6" fill="none" rx="0" ry="0" transform="translate(413.82 253.8)"></rect><path fill="#005492" d="M455.64 214.474v13.02q1.86-2.79 3.64-5.27 1.78-2.48 3.95-4.34 2.17-1.86 4.81-3.02 2.63-1.16 5.89-1.16 5.27 0 7.75 2.71 2.48 2.71 2.48 6.59 0 2.32-.78 3.87-.77 1.55-1.86 2.48-1.09.93-2.32 1.32-1.24.39-2.17.39-1.4 0-2.25-.62-.85-.62-1.71-1.32-.85-.7-1.93-1.32-1.09-.62-2.79-.62-3.57 0-6.82 2.48-3.26 2.48-5.89 5.27v57.04h-15.5v-77.5Z"></path><rect width="44.02" height="78.27" x="-22.01" y="-39.13" fill="none" rx="0" ry="0" transform="translate(462.65 253.34)"></rect><path fill="#005492" d="M507.71 214.474v11.78q2.33-4.18 4.73-6.74 2.4-2.56 4.88-3.8 2.49-1.24 4.73-1.63 2.25-.38 4.26-.38 6.98 0 11.24 2.63 4.27 2.64 6.43 6.74 2.18 4.11 2.87 9.07.7 4.96.7 9.61 0 5.12-.39 12.4-.38 7.29-.38 14.11 0 1.55.15 3.72.16 2.17.93 4.18.77 2.02 2.33 3.49 1.54 1.47 4.49 1.47 1.08 0 2.64-.23 1.54-.23 2.32-1.01v1.09q0 4.18-1.08 6.51-1.09 2.32-2.64 3.56-1.55 1.24-3.41 1.55-1.86.31-3.26.31-4.8 0-8.21-1.94-3.41-1.93-5.66-5.19-2.25-3.25-3.25-7.52-1.01-4.26-1.01-9.06 0-1.4.08-5.2.08-3.79.15-8.13.08-4.34.16-8.22.07-3.87.07-5.42 0-4.96-.77-8.22-.77-3.25-2.17-5.11-1.4-1.86-3.18-2.64-1.78-.77-3.79-.77-4.81 0-8.3 3.87-3.49 3.88-5.66 13.02v49.6h-15.5v-77.5Z"></path><rect width="67.43" height="79.2" x="-33.72" y="-39.6" fill="none" rx="0" ry="0" transform="translate(526.42 253.8)"></rect><path fill="#005492" d="m348.97 52.411.474.12a5.372 5.372 0 0 0-1.19-.312 15.023 15.023 0 0 0-5.723.38c-5.985 1.598-8.361 6.378-10.28 10.223l-.242.505c-.01.014-2.096 4.18-2.096 4.18l-1.444 2.877c-.828 1.644-1.603 3.317-2.378 4.969-1.567-2.07-3.373-4.473-5.351-6.91-7.145-8.83-12.165-14.312-24.809-15.755a107.696 107.696 0 0 0-6.926-.537c.792-.353 1.603-.645 2.352-1.073 8.067-4.597 13.079-13.134 13.079-22.276 0-14.17-11.526-25.706-25.691-25.706-14.173 0-25.708 11.535-25.708 25.706 0 10.008 5.908 19.163 15.043 23.323.243.113.473.18.714.282a126.429 126.429 0 0 0-7.505.772c-7.803 1.074-15.299 2.704-21.146 10.824-7.747 12.05-17.07 29.743-21.944 39.233-3.666 7.213-3.134 11.432 2.21 17.394 0 0 2.385 2.693 5.634 6.338L203.2 156.255l.26-.285a6.153 6.153 0 0 0-1.348 6.768 6.185 6.185 0 0 0 5.738 3.833h143.304a6.193 6.193 0 0 0 5.736-3.833 6.232 6.232 0 0 0-1.344-6.768l.25.285-25.19-32.359c-3.336-4.292-5.048-5.79-11.032-5.79h-6.94a771.5 771.5 0 0 1-1.017-14.085 389.612 389.612 0 0 0 4.686 4.76l.869.893c1.748 1.81 3.734 3.866 6.675 5 4.716 1.838 10.141 1.129 14.167-1.858 3.287-2.448 5.096-4.782 13.877-23.208l4.149-8.71a193.726 193.726 0 0 0 2.06-4.465c1.872-4.15 5.341-11.87.027-18.6a14.669 14.669 0 0 0-9.157-5.422m-87.854-23.613c0-9.72 7.91-17.633 17.629-17.633 9.715 0 17.612 7.91 17.612 17.633 0 6.255-3.447 12.095-8.987 15.256-.924.524-1.869.952-2.862 1.303-2.044.714-3.924 1.06-5.765 1.06a18.386 18.386 0 0 1-3.571-.359c-1.164-.232-2.376-.652-3.708-1.265-6.296-2.868-10.348-9.144-10.348-15.995m58.458 95.515c3.487 0 3.58.126 6.129 3.4l25.196 32.357.106.149.136.135v.006H207.85v-.006s0 .008-.014.008l.085-.083c.11-.119.185-.206.185-.206l22.125-28.38a49551.49 49551.49 0 0 1 13.413 15.092c1.606 1.746 3.42 3 5.46 3.792a14.609 14.609 0 0 0 11.256-.219 14.601 14.601 0 0 0 7.79-8.116c1.905-4.878 1.09-10.324-2.183-14.574-.9-1.034-1.894-2.169-2.914-3.355zm31.178-51.197c-.716 1.584-1.38 3.002-1.998 4.332-.014.007-4.136 8.676-4.136 8.676-8.257 17.297-9.72 18.943-11.418 20.21-1.806 1.341-4.273 1.656-6.432.813-1.286-.496-2.451-1.693-3.786-3.083l-.971-.99a411.662 411.662 0 0 1-12.131-12.626l-7.59-8.273.594 11.216c.422 8.184.982 16.33 1.661 24.714h-46.827c-.642-.754-1.243-1.474-1.865-2.197-.668-.775-1.3-1.52-1.918-2.244l-.24-25.45-13.492 21.734 1.76 2.078c.109.13 11.204 13.279 17.784 20.769a6.755 6.755 0 0 1 .884 6.51 6.547 6.547 0 0 1-3.507 3.65 6.587 6.587 0 0 1-5.079.107 6.419 6.419 0 0 1-2.4-1.674c.072.077-23.22-26.138-23.22-26.138-3.084-3.441-3.165-4.146-1.028-8.34 4.786-9.346 13.97-26.775 21.42-38.361 3.567-4.939 7.702-6.287 15.577-7.364 3.398-.47 7.183-.746 11.039-.935l2.16 8.012-4.84 37.36 8.335 8.065 7.824-8.535-6.394-36.978 2.885-8.09c4.114.068 8.138.236 11.62.634 9.598 1.093 12.9 4.718 19.45 12.813 2.118 2.623 4.13 5.308 5.763 7.473 1.552 2.08 2.789 3.726 3.662 4.697l4.04 4.556c-.016.038 2.594-5.46 2.594-5.46l2.297-4.807a211.99 211.99 0 0 1 2.872-5.997l1.433-2.86 2.095-4.208.258-.509c1.758-3.52 2.78-5.39 5.12-6.011a6.756 6.756 0 0 1 2.544-.172c.207.062.345.126.631.166a6.6 6.6 0 0 1 4.019 2.434c1.925 2.444 1.148 5.378-1.049 10.283"></path></svg></svg>