<svg xmlns="http://www.w3.org/2000/svg" version="1.1" xmlns:xlink="http://www.w3.org/1999/xlink" width="1500" height="1500" viewBox="0 0 1500 1500"><rect width="1500" height="1500" x="0" y="0" id="background" stroke="transparent" fill="#175b99"></rect><svg xml:space="preserve" width="1000" height="1000" data-version="2" data-id="lg_ftdQkNpO8d7ESgJMsj" viewBox="0 0 771 342" x="250" y="250"><rect width="100%" height="100%" fill="transparent"></rect><g transform="translate(49.58 286.93)"><linearGradient id="a" x1="-.01" x2="6.9" y1="0" y2="0" gradientUnits="objectBoundingBox"><stop offset="0%" stop-color="#8c8c8c"></stop><stop offset="49.8%" stop-color="#e3e4e5"></stop><stop offset="100%" stop-color="#8c8c8c"></stop></linearGradient><path fill="url(#a)" d="M50.73 545.81h-24.8V447.7h43.71q14.72 0 23.56 3.56 8.83 3.57 12.71 11.63 3.87 8.06 3.87 21.85 0 13.02-3.87 21.16-3.88 8.14-12.71 12.01-8.84 3.88-23.56 3.88H50.73ZM65.61 468H50.73v33.48h14.88q11 0 14.72-3.72 3.72-3.72 3.72-13.02 0-8.83-3.72-12.78Q76.61 468 65.61 468" transform="translate(-67.86 -496.75)"></path></g><rect width="83.85" height="98.11" x="-41.92" y="-49.05" fill="none" rx="0" ry="0" transform="translate(50.08 287.43)"></rect><g transform="translate(147.62 286.93)"><linearGradient id="b" x1="-.98" x2="5.7" y1="0" y2="0" gradientUnits="objectBoundingBox"><stop offset="0%" stop-color="#8c8c8c"></stop><stop offset="49.8%" stop-color="#e3e4e5"></stop><stop offset="100%" stop-color="#8c8c8c"></stop></linearGradient><path fill="url(#b)" d="M147.76 545.81h-24.8V447.7h46.81q18.44 0 26.89 8.29t8.45 24.41q0 12.09-6.05 20.7-6.04 8.6-15.96 10.77l-.16.46q3.88 2.48 8.53 8.22 4.65 5.73 9.22 12.48 4.57 6.74 8.14 12.63v.15H180l-16.74-24.8q-2.17-3.25-3.49-4.65-1.32-1.39-3.1-1.7-1.78-.31-5.66-.31h-3.25Zm17.98-77.96h-17.98v26.35h17.98q7.75 0 10.77-3.1 3.02-3.1 3.02-10.08 0-6.97-3.02-10.07-3.02-3.1-10.77-3.1" transform="translate(-165.9 -496.75)"></path></g><rect width="85.87" height="98.11" x="-42.94" y="-49.05" fill="none" rx="0" ry="0" transform="translate(148.12 287.43)"></rect><g transform="translate(249.69 286.93)"><linearGradient id="c" x1="-1.82" x2="4.24" y1="0" y2="0" gradientUnits="objectBoundingBox"><stop offset="0%" stop-color="#8c8c8c"></stop><stop offset="49.8%" stop-color="#e3e4e5"></stop><stop offset="100%" stop-color="#8c8c8c"></stop></linearGradient><path fill="url(#c)" d="M219.83 496.68q0-18.76 4.27-29.76 4.26-11.01 14.72-15.81 10.46-4.81 29.22-4.81 14.1 0 23.4 2.64 9.3 2.63 14.73 8.52 5.42 5.89 7.67 15.58 2.25 9.69 2.25 23.64 0 14.1-2.25 23.79t-7.67 15.58q-5.43 5.89-14.73 8.52-9.3 2.64-23.4 2.64-14.11 0-23.41-2.64-9.3-2.63-14.72-8.52-5.43-5.89-7.75-15.58-2.33-9.69-2.33-23.79m48.21 28.83q9.92 0 14.88-2.48 4.96-2.48 6.66-8.76 1.71-6.28 1.71-17.59 0-11.16-1.71-17.36-1.7-6.2-6.66-8.76-4.96-2.56-14.88-2.56-9.77 0-14.8 2.56-5.04 2.56-6.82 8.76-1.79 6.2-1.79 17.36 0 11.31 1.79 17.59 1.78 6.28 6.82 8.76 5.03 2.48 14.8 2.48" transform="translate(-267.96 -496.75)"></path></g><rect width="96.26" height="100.91" x="-48.13" y="-50.45" fill="none" rx="0" ry="0" transform="translate(250.19 287.43)"></rect><g transform="translate(348.96 286.93)"><linearGradient id="d" x1="-3.73" x2="4.61" y1="0" y2="0" gradientUnits="objectBoundingBox"><stop offset="0%" stop-color="#8c8c8c"></stop><stop offset="49.8%" stop-color="#e3e4e5"></stop><stop offset="100%" stop-color="#8c8c8c"></stop></linearGradient><path fill="url(#d)" d="M402.89 524.73v21.08h-71.3V447.7h24.8v77.03Z" transform="translate(-367.24 -496.75)"></path></g><rect width="71.3" height="98.11" x="-35.65" y="-49.05" fill="none" rx="0" ry="0" transform="translate(349.46 287.43)"></rect><g transform="translate(436.54 286.93)"><linearGradient id="e" x1="-3.85" x2="2.76" y1="0" y2="0" gradientUnits="objectBoundingBox"><stop offset="0%" stop-color="#8c8c8c"></stop><stop offset="49.8%" stop-color="#e3e4e5"></stop><stop offset="100%" stop-color="#8c8c8c"></stop></linearGradient><path fill="url(#e)" d="M503.64 545.35v.46h-26.35q-1.09-3.72-2.56-8.52-1.47-4.81-3.18-10.23h-33.48q-3.1 10.85-5.73 18.75h-26.35v-.31l31.77-97.8h34.1Zm-49.14-79.98q-1.55 7.9-4.49 19.22-2.95 11.31-6.2 23.09h22.16q-3.41-11.78-6.35-23.09-2.95-11.32-4.5-19.22Z" transform="translate(-454.81 -496.75)"></path></g><rect width="97.65" height="98.11" x="-48.83" y="-49.05" fill="none" rx="0" ry="0" transform="translate(437.04 287.43)"></rect><g transform="translate(540.39 286.93)"><linearGradient id="f" x1="-4.57" x2="1.6" y1="0" y2="0" gradientUnits="objectBoundingBox"><stop offset="0%" stop-color="#8c8c8c"></stop><stop offset="49.8%" stop-color="#e3e4e5"></stop><stop offset="100%" stop-color="#8c8c8c"></stop></linearGradient><path fill="url(#f)" d="M578.04 447.7h24.8v98.11h-24.65l-27.9-41.54q-3.25-4.96-5.42-8.37-2.17-3.41-4.03-6.82-1.86-3.41-4.19-8.06l-.46.62q2.17 7.44 2.63 13.88.47 6.43.47 12.47v37.82h-24.8V447.7h24.64l27.9 41.54q3.26 4.8 5.43 8.29 2.17 3.49 4.03 6.9 1.86 3.41 4.18 8.06l.47-.62q-1.55-6.51-2.33-12.63-.77-6.13-.77-12.17Z" transform="translate(-558.66 -496.75)"></path></g><rect width="88.35" height="98.11" x="-44.17" y="-49.05" fill="none" rx="0" ry="0" transform="translate(540.89 287.43)"></rect><g transform="translate(638.2 286.93)"><linearGradient id="g" x1="-6.9" x2=".98" y1="0" y2="0" gradientUnits="objectBoundingBox"><stop offset="0%" stop-color="#8c8c8c"></stop><stop offset="49.8%" stop-color="#e3e4e5"></stop><stop offset="100%" stop-color="#8c8c8c"></stop></linearGradient><path fill="url(#g)" d="M694.6 524.58v19.53q-7.44 1.55-14.57 2.32-7.13.78-16.9.78-12.55 0-21.15-2.17-8.61-2.17-13.8-7.67-5.19-5.51-7.52-15.58-2.32-10.08-2.32-25.89 0-15.19 2.32-24.95 2.33-9.77 7.52-15.11 5.19-5.35 13.8-7.44 8.6-2.1 21.15-2.1 9.77 0 16.9.7 7.13.7 14.57 2.4v20.15l-.47.31q-6.51-1.55-12.55-2.24-6.05-.7-14.88-.7-7.13 0-11.7 1.01-4.58 1-7.21 3.95-2.64 2.94-3.64 8.68-1.01 5.73-1.01 15.34 0 10.08 1.01 16.2 1 6.12 3.64 9.22 2.63 3.1 7.21 4.19 4.57 1.08 11.7 1.08 8.68 0 14.8-.54 6.12-.54 12.32-2.09Z" transform="translate(-656.47 -496.75)"></path></g><rect width="76.26" height="100.91" x="-38.13" y="-50.45" fill="none" rx="0" ry="0" transform="translate(638.7 287.43)"></rect><g transform="translate(725.92 286.93)"><linearGradient id="h" x1="-8" x2="-.01" y1="0" y2="0" gradientUnits="objectBoundingBox"><stop offset="0%" stop-color="#8c8c8c"></stop><stop offset="49.8%" stop-color="#e3e4e5"></stop><stop offset="100%" stop-color="#8c8c8c"></stop></linearGradient><path fill="url(#h)" d="M707.77 545.81V447.7h72.85v20.15h-48.05v18.6h41.7v20.15h-41.7v19.06h48.05v20.15Z" transform="translate(-744.2 -496.75)"></path></g><rect width="72.85" height="98.11" x="-36.42" y="-49.05" fill="none" rx="0" ry="0" transform="translate(726.42 287.43)"></rect><g transform="translate(359.06 207.1)scale(3.8034)"><linearGradient id="i" x1="0" x2="1" y1="0" y2="0" gradientUnits="objectBoundingBox"><stop offset="0%" stop-color="#8c8c8c"></stop><stop offset="49.8%" stop-color="#e3e4e5"></stop><stop offset="100%" stop-color="#8c8c8c"></stop></linearGradient><path fill="url(#i)" d="M57 51v1a1 1 0 0 1-1 1H44a1 1 0 0 1-1-1v-1H0v2s0 3 3 3h94c3 0 3-3 3-3v-2z" transform="translate(-50 -53.5)"></path></g><g transform="translate(359.06 94.9)scale(3.8034)"><linearGradient id="j" x1="0" x2="1" y1="0" y2="0" gradientUnits="objectBoundingBox"><stop offset="0%" stop-color="#8c8c8c"></stop><stop offset="49.8%" stop-color="#e3e4e5"></stop><stop offset="100%" stop-color="#8c8c8c"></stop></linearGradient><path fill="url(#j)" d="M85 0H15a3 3 0 0 0-3 3v42a3 3 0 0 0 3 3h70a3 3 0 0 0 3-3V3a3 3 0 0 0-3-3m-1 44H16V4h68z" transform="translate(-50 -24)"></path></g></svg></svg>